<?xml version="1.0" encoding="utf-8"?>
<!-- Generator: Adobe Illustrator 25.4.1, SVG Export Plug-In . SVG Version: 6.00 Build 0)  -->
<svg version="1.1" id="Capa_1" xmlns="http://www.w3.org/2000/svg" xmlns:xlink="http://www.w3.org/1999/xlink" x="0px" y="0px"
	 viewBox="0 0 128 128" style="enable-background:new 0 0 128 128;" xml:space="preserve">
<style type="text/css">
	.st0{fill:#FFFFFF;}
</style>
<g transform="translate(0.000000,128.000000) scale(0.100000,-0.100000)">
	<path class="st0" d="M466,1110c-63-16-153-70-197-117c-22-24-55-74-72-111c-29-61-32-76-32-163c0-90,2-99,37-171
		c45-91,103-147,196-191c61-29,76-32,162-32c83,0,103,4,158,29l63,29l113-111c96-96,118-112,145-112c43,0,81,38,81,81
		c0,27-16,49-112,145L897,499l29,63c25,55,29,75,29,159c0,90-2,99-37,171c-68,136-188,217-336,224C540,1118,488,1115,466,1110z
		 M650,984c76-23,153-100,176-179c63-219-132-414-351-351c-79,23-156,100-179,176c-34,113-11,206,68,286C444,995,537,1018,650,984z"
		/>
</g>
</svg>
